<?xml version="1.0" encoding="utf-8"?>
<!-- Generator: Adobe Illustrator 18.1.1, SVG Export Plug-In . SVG Version: 6.00 Build 0)  -->
<svg version="1.1" id="Layer_1" xmlns="http://www.w3.org/2000/svg" xmlns:xlink="http://www.w3.org/1999/xlink" x="0px" y="0px"
	 viewBox="-103 105 1792 1792" enable-background="new -103 105 1792 1792" xml:space="preserve">
<path fill="#C6C6C6" d="M1023,1443c-24.7-12-37-31.3-37-58v-192H122c-9.3,0-17-3-23-9s-9-13.7-9-23V457c0-14,6-23.7,18-29
	c13.3-5.3,25-4,35,4l192,160c7.3,6,11,14.3,11,25v320h640V745c0-26.7,12.3-46,37-58c24.7-11.3,47.3-8.3,68,9l384,320
	c14.7,12,22,28.3,22,49s-7.3,37-22,49l-384,320C1069.7,1452,1047,1455,1023,1443z"/>
<image overflow="visible" width="182" height="112" xlink:href="Screen Shot 2015-04-13 at 2.33.39 PM.png"  transform="matrix(7.9812 0 0 7.9812 2947.2622 1119.1036)">
</image>
</svg>
